<?xml version="1.0" encoding="UTF-8"?>
<svg width="23px" height="14px" viewBox="0 0 23 14" version="1.1" xmlns="http://www.w3.org/2000/svg" xmlns:xlink="http://www.w3.org/1999/xlink">
    <!-- Generator: Sketch 45.1 (43504) - http://www.bohemiancoding.com/sketch -->
    <title>icon_svg_menu</title>
    <desc>Created with Sketch.</desc>
    <defs></defs>
    <g id="Final" stroke="none" stroke-width="1" fill="none" fill-rule="evenodd">
        <g id="Style-guide" transform="translate(-771.000000, -1687.000000)" fill="#000000">
            <g id="icons" transform="translate(50.000000, 1604.000000)">
                <path d="M722.071068,83 L742.071068,83 C742.623353,83 743.071068,83.4477153 743.071068,84 L743.071068,84 C743.071068,84.5522847 742.623353,85 742.071068,85 L722.071068,85 C721.518783,85 721.071068,84.5522847 721.071068,84 L721.071068,84 L721.071068,84 C721.071068,83.4477153 721.518783,83 722.071068,83 L722.071068,83 Z M722.071068,89 L742.071068,89 C742.623353,89 743.071068,89.4477153 743.071068,90 C743.071068,90.5522847 742.623353,91 742.071068,91 L722.071068,91 C721.518783,91 721.071068,90.5522847 721.071068,90 C721.071068,89.4477153 721.518783,89 722.071068,89 L722.071068,89 Z M722.071068,95 L742.071068,95 C742.623353,95 743.071068,95.4477153 743.071068,96 C743.071068,96.5522847 742.623353,97 742.071068,97 L722.071068,97 C721.518783,97 721.071068,96.5522847 721.071068,96 C721.071068,95.4477153 721.518783,95 722.071068,95 L722.071068,95 Z" id="icon_svg_menu"></path>
            </g>
        </g>
    </g>
</svg>