<?xml version="1.0" encoding="UTF-8"?>
<svg width="25px" height="25px" viewBox="0 0 25 25" version="1.1" xmlns="http://www.w3.org/2000/svg" xmlns:xlink="http://www.w3.org/1999/xlink">
    <!-- Generator: Sketch 45.1 (43504) - http://www.bohemiancoding.com/sketch -->
    <title>icon_svg_facebook</title>
    <desc>Created with Sketch.</desc>
    <defs></defs>
    <g id="Final" stroke="none" stroke-width="1" fill="none" fill-rule="evenodd">
        <g id="Style-guide" transform="translate(-204.000000, -1682.000000)" fill="#2B2B2B">
            <g id="icons" transform="translate(50.000000, 1604.000000)">
                <path d="M179.000682,101.619661 C179.000682,102.381674 178.383003,103 177.620949,103 L171.250069,103 L171.250069,93.3185607 L174.499864,93.3185607 L174.986789,89.5459523 L171.250069,89.5459523 L171.250069,87.1366583 C171.250069,86.0443724 171.5538,85.3000654 173.120131,85.3000654 L175.118224,85.2993844 L175.118224,81.9244661 C174.77227,81.8788407 173.586625,81.7760133 172.206892,81.7760133 C169.326206,81.7760133 167.353991,83.534294 167.353991,86.7634833 L167.353991,89.5459523 L164.096023,89.5459523 L164.096023,93.3185607 L167.353991,93.3185607 L167.353991,103 L155.379733,103 C154.617679,103 154,102.381674 154,101.619661 L154,79.3803389 C154,78.6176455 154.617679,78 155.379733,78 L177.620949,78 C178.383003,78 179.000682,78.6176455 179.000682,79.3803389 L179.000682,101.619661" id="icon_svg_facebook"></path>
            </g>
        </g>
    </g>
</svg>