<?xml version="1.0" encoding="UTF-8"?>
<svg width="35px" height="22px" viewBox="0 0 35 22" version="1.1" xmlns="http://www.w3.org/2000/svg" xmlns:xlink="http://www.w3.org/1999/xlink">
    <!-- Generator: Sketch 45.1 (43504) - http://www.bohemiancoding.com/sketch -->
    <title>icon_svg_google</title>
    <desc>Created with Sketch.</desc>
    <defs></defs>
    <g id="Final" stroke="none" stroke-width="1" fill="none" fill-rule="evenodd">
        <g id="Style-guide" transform="translate(-318.000000, -1684.000000)" fill="#BEBFDC">
            <g id="icons" transform="translate(50.000000, 1604.000000)">
                <path d="M278.980724,88.821761 L289.526228,88.821761 C290.260446,94.0932279 288.044939,102 278.980724,102 C272.91678,102 268,97.0746524 268,90.9995716 C268,84.9244908 272.91678,80 278.980724,80 C281.825928,80 284.418396,81.0837649 286.369173,82.8623389 C284.07142,85.0367226 284.146813,85.166089 283.243818,86.0707971 C282.115503,85.1361034 280.885237,84.4652829 278.980724,84.4652829 C275.378169,84.4652829 272.566377,87.3910199 272.566377,90.9995716 C272.566377,94.6089801 275.378169,97.5347171 278.980724,97.5347171 C282.540442,97.5347171 283.986604,95.9968846 284.917014,93.1722419 C283.199268,93.1722419 278.980724,93.178239 278.980724,93.178239 L278.980724,88.821761 Z M298.76693,89.0393707 L302.571673,89.0393707 L302.571673,91.7620624 L298.76693,91.7620624 L298.76693,95.683321 L296.049379,95.683321 L296.049379,91.7620624 L292.134974,91.7620624 L292.134974,89.0393707 L296.049379,89.0393707 L296.049379,85.2277737 L298.76693,85.2277737 L298.76693,89.0393707 Z" id="icon_svg_google"></path>
            </g>
        </g>
    </g>
</svg>