<?xml version="1.0" encoding="UTF-8"?>
<svg width="33px" height="43px" viewBox="0 0 33 43" version="1.1" xmlns="http://www.w3.org/2000/svg" xmlns:xlink="http://www.w3.org/1999/xlink">
    <!-- Generator: Sketch 45.1 (43504) - http://www.bohemiancoding.com/sketch -->
    <title>icon_svg_play</title>
    <desc>Created with Sketch.</desc>
    <defs></defs>
    <g id="Final" stroke="none" stroke-width="1" fill="none" fill-rule="evenodd">
        <g id="Style-guide" transform="translate(-432.000000, -1672.000000)" fill="#59597F">
            <g id="icons" transform="translate(50.000000, 1604.000000)">
                <path d="M400.773695,74.8548305 L418.638772,101.423179 L418.638772,101.423179 C419.563298,102.798103 419.198178,104.662176 417.823254,105.586703 C417.328391,105.919458 416.745586,106.097182 416.149251,106.097182 L380.419097,106.097182 L380.419097,106.097182 C378.762243,106.097182 377.419097,104.754036 377.419097,103.097182 C377.419097,102.500847 377.596821,101.918042 377.929576,101.423179 L395.794653,74.8548305 L395.794653,74.8548305 C396.719179,73.479906 398.583252,73.114786 399.958177,74.0393121 C400.280202,74.2558484 400.557159,74.5328049 400.773695,74.8548305 Z" id="icon_svg_play" transform="translate(398.284328, 89.812853) rotate(90.000000) translate(-398.284328, -89.812853) "></path>
            </g>
        </g>
    </g>
</svg>