<?xml version="1.0" encoding="UTF-8"?>
<svg width="38px" height="21px" viewBox="0 0 38 21" version="1.1" xmlns="http://www.w3.org/2000/svg" xmlns:xlink="http://www.w3.org/1999/xlink">
    <!-- Generator: Sketch 45.1 (43504) - http://www.bohemiancoding.com/sketch -->
    <title>icon_svg_arrowright</title>
    <desc>Created with Sketch.</desc>
    <defs></defs>
    <g id="Final" stroke="none" stroke-width="1" fill="none" fill-rule="evenodd">
        <g id="Style-guide" transform="translate(-608.000000, -1685.000000)" fill="#2B2B2B">
            <g id="icons" transform="translate(50.000000, 1604.000000)">
                <path d="M558.276767,92.274064 L565.8774,101.53877 C566.328967,102.090329 567.140267,102.136035 567.658333,101.731476 C568.1764,101.327535 568.270767,100.499888 567.856567,99.9946522 L561.8988,93 L594.733333,93 C595.433167,93 596,92.1845052 596,91.5020052 C596,90.8195052 595.433167,90 594.733333,90 L561.8988,90 L567.856567,83.0093581 C568.270767,82.5041228 568.154233,81.702417 567.658333,81.2725346 C567.140267,80.8222699 566.2916,80.9600052 565.8774,81.4652405 L558.276767,90.7299464 C558.0627,90.9856522 558.0171,91.1765052 558,91.5020052 C558.031667,91.7274464 558.128567,92.0986522 558.276767,92.274064 Z" id="icon_svg_arrowright" transform="translate(577.000000, 91.499627) scale(-1, 1) translate(-577.000000, -91.499627) "></path>
            </g>
        </g>
    </g>
</svg>