<?xml version="1.0" encoding="UTF-8"?>
<svg width="38px" height="21px" viewBox="0 0 38 21" version="1.1" xmlns="http://www.w3.org/2000/svg" xmlns:xlink="http://www.w3.org/1999/xlink">
    <!-- Generator: Sketch 45.1 (43504) - http://www.bohemiancoding.com/sketch -->
    <title>icon_svg_arrowleft</title>
    <desc>Created with Sketch.</desc>
    <defs></defs>
    <g id="Final" stroke="none" stroke-width="1" fill="none" fill-rule="evenodd">
        <g id="Style-guide" transform="translate(-550.000000, -1685.000000)" fill="#21A476">
            <g id="icons" transform="translate(50.000000, 1604.000000)">
                <path d="M500.276767,92.2740353 L507.8774,101.538741 C508.328967,102.0903 509.140267,102.136006 509.658333,101.731447 C510.1764,101.327506 510.270767,100.499859 509.856567,99.9946235 L503.8988,93 L536.733333,93 C537.433167,93 538,92.1844765 538,91.5019765 C538,90.8194765 537.433167,90 536.733333,90 L503.8988,90 L509.856567,83.0093294 C510.270767,82.5040941 510.154233,81.7023882 509.658333,81.2725059 C509.140267,80.8222412 508.2916,80.9599765 507.8774,81.4652118 L500.276767,90.7299176 C500.0627,90.9856235 500.0171,91.1764765 500,91.5019765 C500.031667,91.7274176 500.128567,92.0986235 500.276767,92.2740353 Z" id="icon_svg_arrowleft"></path>
            </g>
        </g>
    </g>
</svg>