<?xml version="1.0" encoding="UTF-8"?>
<svg width="28px" height="23px" viewBox="0 0 28 23" version="1.1" xmlns="http://www.w3.org/2000/svg" xmlns:xlink="http://www.w3.org/1999/xlink">
    <!-- Generator: Sketch 45.1 (43504) - http://www.bohemiancoding.com/sketch -->
    <title>icon_svg_twitter</title>
    <desc>Created with Sketch.</desc>
    <defs></defs>
    <g id="Final" stroke="none" stroke-width="1" fill="none" fill-rule="evenodd">
        <g id="Style-guide" transform="translate(-260.000000, -1684.000000)" fill="#BEBFDC">
            <g id="icons" transform="translate(50.000000, 1604.000000)">
                <path d="M237.227725,80.4252027 C236.116786,81.0899042 234.889221,81.5733235 233.577177,81.8319823 C232.532027,80.7044952 231.038315,80 229.384615,80 C226.214776,80 223.642272,82.5998526 223.642272,85.8061901 C223.642272,86.2616065 223.691613,86.7030214 223.790297,87.128224 C219.0161,86.8857775 214.783916,84.5770081 211.949003,81.0596905 C211.454089,81.9204127 211.171495,82.9189388 211.171495,83.9823139 C211.171495,85.9955785 212.185246,87.7730287 213.727552,88.8142962 C212.787066,88.7862933 211.899661,88.5224761 211.123648,88.0906411 L211.123648,88.1613854 C211.123648,90.9756817 213.10405,93.3235077 215.73412,93.8548268 C215.252663,93.991157 214.744293,94.0596905 214.220223,94.0596905 C213.850159,94.0596905 213.489066,94.0243183 213.139188,93.9565217 C213.870344,96.2623434 215.990548,97.9417833 218.504739,97.9867354 C216.539289,99.5445836 214.060983,100.473102 211.370358,100.473102 C210.906843,100.473102 210.448562,100.446573 210,100.393515 C212.541852,102.03832 215.562919,103 218.806024,103 C229.373401,103 235.150135,94.1540162 235.150135,86.4804716 C235.150135,86.2277082 235.145649,85.9756817 235.13593,85.7280766 C236.258083,84.9093589 237.232959,83.8872513 238,82.7229182 C236.971297,83.1842299 235.863349,83.4966839 234.701573,83.6366986 C235.88802,82.9189388 236.798601,81.7811349 237.227725,80.4252027" id="icon_svg_twitter"></path>
            </g>
        </g>
    </g>
</svg>