<?xml version="1.0" encoding="UTF-8"?>
<svg width="18px" height="18px" viewBox="0 0 18 18" version="1.1" xmlns="http://www.w3.org/2000/svg" xmlns:xlink="http://www.w3.org/1999/xlink">
    <!-- Generator: Sketch 45.1 (43504) - http://www.bohemiancoding.com/sketch -->
    <title>icon_svg_menuclose</title>
    <desc>Created with Sketch.</desc>
    <defs></defs>
    <g id="Final" stroke="none" stroke-width="1" fill="none" fill-rule="evenodd">
        <g id="Style-guide" transform="translate(-724.000000, -1685.000000)" fill="#000000">
            <g id="icons" transform="translate(50.000000, 1604.000000)">
                <path d="M683,88.5857864 L676.636039,82.2218254 L676.636039,82.2218254 C676.245515,81.8313011 675.61235,81.8313011 675.221825,82.2218254 L675.221825,82.2218254 L675.221825,82.2218254 C674.831301,82.6123497 674.831301,83.2455147 675.221825,83.636039 L681.585786,90 L675.221825,96.363961 C674.831301,96.7544853 674.831301,97.3876503 675.221825,97.7781746 C675.61235,98.1686989 676.245515,98.1686989 676.636039,97.7781746 L683,91.4142136 L689.363961,97.7781746 C689.754485,98.1686989 690.38765,98.1686989 690.778175,97.7781746 C691.168699,97.3876503 691.168699,96.7544853 690.778175,96.363961 L684.414214,90 L690.778175,83.636039 C691.168699,83.2455147 691.168699,82.6123497 690.778175,82.2218254 L690.778175,82.2218254 L690.778175,82.2218254 C690.38765,81.8313011 689.754485,81.8313011 689.363961,82.2218254 L689.363961,82.2218254 L683,88.5857864 Z" id="icon_svg_menuclose"></path>
            </g>
        </g>
    </g>
</svg>